<svg width="164" height="40" viewBox="0 0 164 40" fill="none" xmlns="http://www.w3.org/2000/svg">
<path d="M6.95667 9.86667L14.8767 5.28333C15.7078 4.79444 16.4411 4.73333 17.0767 5.1C17.7367 5.46666 18.0667 6.13889 18.0667 7.11666V10.7833L14.8767 12.6167V8.95L6.95667 13.5333V34.8L14.8767 30.2167V26.55L18.0667 24.7167V28.3833C18.0667 29.0189 17.9078 29.7033 17.59 30.4367C17.2967 31.17 16.9056 31.8544 16.4167 32.49C15.9522 33.1011 15.4389 33.5656 14.8767 33.8833L6.95667 38.4667C6.10111 38.9556 5.35556 39.0167 4.72 38.65C4.08444 38.2833 3.76667 37.6111 3.76667 36.6333V15.3667C3.76667 14.7067 3.91333 14.0222 4.20667 13.3133C4.5 12.58 4.89111 11.9078 5.38 11.2967C5.86889 10.6611 6.39444 10.1844 6.95667 9.86667ZM18.0667 24.7167L14.8767 26.55L11.6867 24.7167L14.8767 22.8833L18.0667 24.7167ZM14.8767 26.55V30.2167L11.6867 28.3833V24.7167L14.8767 26.55ZM14.8767 30.2167L6.95667 34.8L3.76667 32.9667L11.6867 28.3833L14.8767 30.2167ZM14.8767 8.95V12.6167L11.6867 10.7833V7.11666L14.8767 8.95ZM17.1133 5.1C16.4533 4.73333 15.7078 4.79444 14.8767 5.28333L6.95667 9.86667C6.39444 10.1844 5.86889 10.6611 5.38 11.2967C4.89111 11.9078 4.5 12.58 4.20667 13.3133C3.91333 14.0222 3.76667 14.7067 3.76667 15.3667V36.6333C3.76667 37.6111 4.08444 38.2833 4.72 38.65L1.53 36.8167C0.894445 36.45 0.576667 35.7778 0.576667 34.8V13.5333C0.576667 12.8733 0.723333 12.1889 1.01667 11.48C1.31 10.7467 1.70111 10.0744 2.19 9.46333C2.67889 8.82778 3.20444 8.35111 3.76667 8.03333L11.6867 3.45C12.5422 2.96111 13.2878 2.9 13.9233 3.26666L17.1133 5.1ZM27.6175 9.86667L35.5375 5.28333C36.3686 4.79444 37.1019 4.73333 37.7375 5.1C38.3975 5.46666 38.7275 6.13889 38.7275 7.11666V28.3833C38.7275 29.0189 38.5686 29.7033 38.2508 30.4367C37.9575 31.17 37.5664 31.8544 37.0775 32.49C36.613 33.1011 36.0997 33.5656 35.5375 33.8833L27.6175 38.4667C26.7619 38.9556 26.0164 39.0167 25.3808 38.65C24.7453 38.2833 24.4275 37.6111 24.4275 36.6333V15.3667C24.4275 14.7067 24.5741 14.0222 24.8675 13.3133C25.1608 12.58 25.5519 11.9078 26.0408 11.2967C26.5297 10.6611 27.0553 10.1844 27.6175 9.86667ZM27.6175 34.8L35.5375 30.2167V8.95L27.6175 13.5333V34.8ZM35.5375 8.95V30.2167L32.3475 28.3833V7.11666L35.5375 8.95ZM35.5375 30.2167L27.6175 34.8L24.4275 32.9667L32.3475 28.3833L35.5375 30.2167ZM37.7741 5.1C37.1141 4.73333 36.3686 4.79444 35.5375 5.28333L27.6175 9.86667C27.0553 10.1844 26.5297 10.6611 26.0408 11.2967C25.5519 11.9078 25.1608 12.58 24.8675 13.3133C24.5741 14.0222 24.4275 14.7067 24.4275 15.3667V36.6333C24.4275 37.6111 24.7453 38.2833 25.3808 38.65L22.1908 36.8167C21.5553 36.45 21.2375 35.7778 21.2375 34.8V13.5333C21.2375 12.8733 21.3841 12.1889 21.6775 11.48C21.9708 10.7467 22.3619 10.0744 22.8508 9.46333C23.3397 8.82778 23.8653 8.35111 24.4275 8.03333L32.3475 3.45C33.203 2.96111 33.9486 2.9 34.5841 3.26666L37.7741 5.1ZM56.1983 33.8833L48.2783 38.4667C47.4227 38.9556 46.6772 39.0167 46.0416 38.65C45.4061 38.2833 45.0883 37.6111 45.0883 36.6333V13.1667L48.2783 11.3333V34.8L56.1983 30.2167V6.75L59.3883 4.91666V28.3833C59.3883 29.0189 59.2294 29.7033 58.9116 30.4367C58.6183 31.17 58.2272 31.8544 57.7383 32.49C57.2738 33.1011 56.7605 33.5656 56.1983 33.8833ZM59.3883 4.91666L56.1983 6.75L53.0083 4.91666L56.1983 3.08333L59.3883 4.91666ZM56.1983 6.75V30.2167L53.0083 28.3833V4.91666L56.1983 6.75ZM56.1983 30.2167L48.2783 34.8L45.0883 32.9667L53.0083 28.3833L56.1983 30.2167ZM48.2783 11.3333L45.0883 13.1667L41.8983 11.3333L45.0883 9.5L48.2783 11.3333ZM45.0883 13.1667V36.6333C45.0883 37.6111 45.4061 38.2833 46.0416 38.65L42.8516 36.8167C42.2161 36.45 41.8983 35.7778 41.8983 34.8V11.3333L45.0883 13.1667ZM73.6691 8.58333C74.5246 8.09444 75.2702 8.03333 75.9058 8.4C76.5413 8.76666 76.8591 9.43889 76.8591 10.4167V28.75L81.6258 26V4L84.8158 2.16666V27.8333L76.8591 32.4167C76.028 32.9056 75.2824 32.9667 74.6224 32.6C73.9869 32.2333 73.6691 31.5611 73.6691 30.5833V12.25L68.9391 15V37L65.7491 38.8333V13.1667L73.6691 8.58333ZM84.8158 2.16666L81.6258 4L78.4358 2.16666L81.6258 0.333332L84.8158 2.16666ZM81.6258 4V26L78.4358 24.1667V2.16666L81.6258 4ZM81.6258 26L76.8591 28.75L73.6691 26.9167L78.4358 24.1667L81.6258 26ZM73.6691 12.25V30.5833C73.6691 31.5611 73.9869 32.2333 74.6224 32.6L71.4691 30.7667C70.8335 30.4 70.5158 29.7278 70.5158 28.75V10.4167L73.6691 12.25ZM75.9058 8.4C75.2702 8.03333 74.5246 8.09444 73.6691 8.58333L65.7491 13.1667L62.5591 11.3333L70.5158 6.75C71.3469 6.26111 72.0802 6.2 72.7158 6.56666L75.9058 8.4ZM65.7491 13.1667V38.8333L62.5591 37V11.3333L65.7491 13.1667ZM96.8923 13.5333L91.1723 16.8333V13.1667L105.766 4.73333V8.4L100.046 11.7V37L96.8923 38.8333V13.5333ZM96.8923 13.5333V38.8333L93.7023 37V11.7L96.8923 13.5333ZM105.766 4.73333L91.1723 13.1667L87.9823 11.3333L102.612 2.9L105.766 4.73333ZM91.1723 13.1667V16.8333L87.9823 15V11.3333L91.1723 13.1667ZM121.439 25.0833L113.519 29.6667V37L110.329 38.8333V11.7L121.439 5.28333C122.27 4.79444 123.004 4.73333 123.639 5.1C124.299 5.46666 124.629 6.13889 124.629 7.11666V15.9167C124.629 16.5522 124.47 17.2367 124.153 17.97C123.859 18.7033 123.468 19.3878 122.979 20.0233C122.515 20.6344 122.001 21.0989 121.439 21.4167C122.27 20.9278 123.004 20.8667 123.639 21.2333C124.299 21.6 124.629 22.2722 124.629 23.25V30.5833L121.439 32.4167V25.0833ZM121.439 21.4167V8.95L113.519 13.5333V26L121.439 21.4167ZM121.439 25.0833V32.4167L118.249 30.5833V23.25L121.439 25.0833ZM123.676 21.2333C123.016 20.8667 122.27 20.9278 121.439 21.4167L118.249 19.5833C119.105 19.0944 119.85 19.0333 120.486 19.4L123.676 21.2333ZM121.439 8.95V21.4167L118.249 19.5833V7.11666L121.439 8.95ZM121.439 21.4167L113.519 26L110.329 24.1667L118.249 19.5833L121.439 21.4167ZM123.676 5.1C123.016 4.73333 122.27 4.79444 121.439 5.28333L110.329 11.7L107.139 9.86667L118.249 3.45C119.105 2.96111 119.85 2.9 120.486 3.26666L123.676 5.1ZM110.329 11.7V38.8333L107.139 37V9.86667L110.329 11.7ZM134.18 34.8L142.1 30.2167V33.8833L134.18 38.4667C133.324 38.9556 132.579 39.0167 131.943 38.65C131.308 38.2833 130.99 37.6111 130.99 36.6333V7.66667L134.18 5.83333V34.8ZM134.18 5.83333L130.99 7.66667L127.8 5.83333L130.99 4L134.18 5.83333ZM142.1 30.2167L134.18 34.8L130.99 32.9667L138.91 28.3833L142.1 30.2167ZM130.99 7.66667V36.6333C130.99 37.6111 131.308 38.2833 131.943 38.65L128.753 36.8167C128.118 36.45 127.8 35.7778 127.8 34.8V5.83333L130.99 7.66667ZM154.148 28.2L151.618 29.6667C150.763 30.1556 150.017 30.2167 149.381 29.85C148.746 29.4833 148.428 28.8111 148.428 27.8333V13.1667L151.618 11.3333V26L159.868 21.2333V6.56666L163.021 4.73333V19.4C163.021 20.0356 162.875 20.72 162.581 21.4533C162.288 22.1867 161.897 22.8711 161.408 23.5067C160.944 24.1178 160.43 24.5822 159.868 24.9L157.301 26.3667V37.3667L154.148 39.2V28.2ZM154.148 28.2V39.2L150.958 37.3667V26.3667L154.148 28.2ZM163.021 4.73333L159.868 6.56666L156.678 4.73333L159.868 2.9L163.021 4.73333ZM159.868 6.56666V21.2333L156.678 19.4V4.73333L159.868 6.56666ZM159.868 21.2333L151.618 26L148.428 24.1667L156.678 19.4L159.868 21.2333ZM151.618 11.3333L148.428 13.1667L145.238 11.3333L148.428 9.5L151.618 11.3333ZM148.428 13.1667V27.8333C148.428 28.8111 148.746 29.4833 149.381 29.85L146.191 28.0167C145.556 27.65 145.238 26.9778 145.238 26V11.3333L148.428 13.1667Z" fill="black"/>
</svg>
